<?xml version="1.0" standalone="no"?>
<!DOCTYPE svg PUBLIC "-//W3C//DTD SVG 20010904//EN"
 "http://www.w3.org/TR/2001/REC-SVG-20010904/DTD/svg10.dtd">
<svg version="1.0" xmlns="http://www.w3.org/2000/svg"
 width="700.000000pt" height="700.000000pt" viewBox="0 0 700.000000 700.000000"
 preserveAspectRatio="xMidYMid meet">
<metadata>
Created by potrace 1.11, written by Peter Selinger 2001-2013
</metadata>
<g transform="translate(0.000000,700.000000) scale(0.100000,-0.100000)"
fill="#000000" stroke="none">
<path d="M2079 6674 c-58 -17 -128 -78 -156 -135 -28 -58 -1880 -4529 -1904
-4598 -11 -30 -19 -71 -19 -92 0 -61 35 -140 84 -188 40 -40 139 -82 1587
-682 849 -352 1568 -647 1598 -655 34 -11 70 -14 99 -10 36 5 2136 866 2222
911 29 15 93 81 108 110 5 11 299 718 652 1570 464 1122 643 1564 647 1601 11
103 -50 210 -146 259 -70 35 -4580 1901 -4626 1914 -52 14 -89 13 -146 -5z
m2264 -1445 c1118 -463 2034 -843 2036 -845 3 -3 -1055 -2563 -1063 -2571 -2
-2 -293 116 -647 263 -610 253 -647 267 -709 267 -49 1 -77 -5 -112 -22 -97
-46 -100 -53 -387 -747 -146 -352 -266 -641 -267 -642 -2 -4 -2565 1055 -2572
1063 -4 4 1680 4075 1686 4075 2 0 918 -379 2035 -841z m91 -3634 c174 -71
316 -133 316 -136 0 -8 -901 -381 -907 -375 -7 7 260 647 268 644 4 -2 149
-61 323 -133z"/>
<path d="M3865 3715 c-662 -275 -680 -282 -691 -261 -6 11 -58 134 -114 271
-57 138 -106 253 -110 258 -6 7 -464 -176 -484 -194 -5 -4 88 -241 209 -532
l217 -525 37 15 c20 9 436 181 925 384 488 202 891 371 894 373 5 6 -185 474
-197 487 -3 4 -312 -121 -686 -276z"/>
</g>
</svg>
